# xmcd CD database file
#
# Track frame offsets:
#	150
#	23160
#	47905
#	68227
#	90116
#	114982
#	136454
#
# Disc length: 2108 seconds
#
# Revision: 1
# Processed by: cddbd v1.5.2PL0 Copyright (c) Steve Scherf et al.
# Submitted via: CDex 1.51
#
DISCID=53083a07
DTITLE=Igor Prochazka Trio - Easy Route
DYEAR=2008
DGENRE=Jazz
TTITLE0=Hope
TTITLE1=Easy Route
TTITLE2=Lack Of Intelligence
TTITLE3=Obscure Blues
TTITLE4=Corryvreckan
TTITLE5=Spinning
TTITLE6=A Love Boat Supreme
EXTD=YEAR: 2008
EXTT0=
EXTT1=
EXTT2=
EXTT3=
EXTT4=
EXTT5=
EXTT6=
PLAYORDER=
